<svg width="649" height="635" viewBox="0 0 649 635" fill="none" xmlns="http://www.w3.org/2000/svg">
<g clip-path="url(#clip0_46_6)">
<path fill-rule="evenodd" clip-rule="evenodd" d="M361.703 1.61097C442.851 -11.5897 518.348 58.6395 562.496 127.995C599.885 186.733 570.55 259.164 569.967 328.789C569.393 397.312 599.542 470.883 559.159 526.245C515.009 586.774 436.373 608.191 361.703 614.313C279.286 621.069 189.24 618.142 128.98 561.512C67.5313 503.766 38.6972 410.903 57.8734 328.789C74.823 256.209 166.379 238.798 217.097 184.183C272.016 125.044 282.044 14.5694 361.703 1.61097Z" fill="#D3DDF0" fill-opacity="0.2"/>
<path fill-rule="evenodd" clip-rule="evenodd" d="M320.227 109.918C390.908 90.7468 454.379 20.7663 524 43.4878C593.487 66.1655 644.662 144.202 648.871 217.174C652.959 288.06 563.846 328.506 544.378 396.788C523.565 469.79 594.643 572.553 534.387 618.723C474.726 664.436 389.578 597.509 320.227 568.537C274.89 549.597 250.234 502.423 205.8 481.452C143.697 452.141 49.8372 481.831 13.3071 423.681C-21.3779 368.469 18.9485 292.974 52.1407 236.851C80.9709 188.103 132.359 160.068 183.546 135.832C226.509 115.491 274.349 122.362 320.227 109.918Z" fill="#DBE3F5" fill-opacity="0.5"/>
</g>
<defs>
<clipPath id="clip0_46_6">
<rect width="649" height="635" fill="white"/>
</clipPath>
</defs>
</svg>
