<svg width="40" height="68" viewBox="0 0 40 68" fill="none" xmlns="http://www.w3.org/2000/svg">
<path d="M35.9668 58.9949C34.2124 61.9007 31.9461 64.1293 29.3876 65.4649C26.3376 67.1714 23.0711 68.01 19.7824 67.931C15.5038 67.931 11.8887 66.9256 8.86263 64.8291C6.1358 63.1611 3.87139 60.3158 2.40748 56.7179C0.886131 52.682 0.240062 48.1223 0.547215 43.5889L0.875881 37.0157V0H9.23467V37.2907C9.23467 40.7276 9.23473 43.8552 9.29674 46.3212C9.29352 48.2478 9.42637 50.1702 9.69353 52.0609C10.0931 54.9536 11.3011 57.5106 13.0544 59.1754C15.0883 61.2719 17.7857 62.2772 21.345 62.2772C23.9223 62.313 26.4763 61.5987 28.8419 60.1807C30.7811 59.0655 32.487 57.2927 33.8026 55.0253C34.8463 53.1824 35.568 51.0296 35.9109 48.7357C36.3413 45.1171 36.5611 41.4565 36.5682 37.7891V0H39.7927V38.1156C39.8068 42.2696 39.5641 46.4177 39.0672 50.5143C38.72 53.5216 37.4798 56.3485 35.9668 58.9949Z" fill="black"/>
</svg>
