<svg width="31" height="68" viewBox="0 0 31 68" fill="none" xmlns="http://www.w3.org/2000/svg">
<path d="M23.3595 35.1968C21.1546 36.7522 17.3093 37.0185 12.2041 37.0185H8.12109V50.3376C8.12109 53.1647 8.05572 54.6342 8.12109 56.8082L7.36034 55.7169C8.12107 56.8082 8.12109 67.9361 8.12109 67.9361H0.0917969V0H10.0586C14.8132 0 18.4444 0.730407 21.0297 1.83031C23.5717 2.90534 25.8429 5.0249 27.5673 7.93133C29.3343 10.9568 30.2564 14.8272 30.1526 18.7843C30.1949 22.2569 29.6068 25.6849 28.4469 28.7263C27.2287 31.5603 25.4589 33.8112 23.3595 35.1968ZM10.7539 5.01829C9.67821 5.01829 8.79266 5.01831 8.10324 5.11283V32.4643H10.4805C13.0658 32.4643 15.0212 32.4643 16.5367 31.7339C18.0184 31.0797 19.2776 29.6484 20.0669 27.7209C21.1367 25.2715 21.6654 22.4091 21.5825 19.5146C21.5825 14.23 20.697 10.6725 19.0566 8.48126C17.4163 6.29005 14.7894 5.01829 10.7539 5.01829Z" fill="black"/>
</svg>
