<svg width="35" height="68" viewBox="0 0 35 68" fill="none" xmlns="http://www.w3.org/2000/svg">
<path d="M21.491 36.4587C23.6004 38.809 25.4583 41.6022 27.0038 44.7468C27.0038 44.7468 30.3859 51.403 34.9544 67.9361H28.0662C27.4406 64.1056 21.1191 36.768 9.33775 36.768L8.21043 36.6734V67.9361H0.259766V0H10.8429C15.1045 0 18.6105 0.369309 21.367 1.55454C24.1234 2.73977 26.4431 4.38019 28.1902 7.20585C29.9285 9.95749 30.8712 13.5779 30.8227 17.3147C30.8499 19.5038 30.5572 21.6764 29.9639 23.6886C29.3707 25.7008 28.4905 27.5066 27.3816 28.9866C25.2814 31.8799 22.6835 33.8947 19.8619 34.8183C20.4385 35.2909 20.9839 35.84 21.491 36.4587ZM10.2172 5.01576L8.21043 4.9213V32.2331H12.6608C13.425 32.1843 14.1822 31.9997 14.9156 31.6835C15.6652 31.4086 16.3558 31.0479 16.9815 30.7731C18.0441 30.2088 19.0063 29.3049 19.797 28.1277C20.546 27.045 21.1241 25.7379 21.491 24.2972C21.9261 22.3277 22.1374 20.2679 22.1166 18.1993C22.1166 13.8191 21.367 10.6327 19.9268 8.1678C18.6755 5.92616 15.4763 5.01576 10.2172 5.01576Z" fill="black"/>
</svg>
